<svg xmlns="http://www.w3.org/2000/svg" height="48" width="48"><path d="M20.5 23.55q-1.7 0-2.7-1.175-1-1.175-.7-2.825l.6-3.75q.4-2.3 2.175-3.8T24 10.5q2.4 0 4.175 1.5t2.175 3.8l.65 3.75q.25 1.65-.775 2.825Q29.2 23.55 27.6 23.55Zm-13.6 3.8q-1.15.05-1.925-.425Q4.2 26.45 3.95 25.45q-.15-.4-.025-.825.125-.425.275-.825 0 .05-.05-.3-.15 0-.5-1.1-.05-.45.15-1t.6-.95q-.05 0 .15-.1 0-.9.625-1.5t1.675-.6q.1 0 .85.15l.15-.05q.2-.2.625-.35.425-.15.775-.15.55 0 .95.225.4.225.7.525.05 0 .075.025.025.025.075.025.65 0 1.2.325.55.325.7 1.075-.05.25 0 .575.05.325-.05.575 0 .1.05.2.25.3.475.725.225.425.225.875 0 .25-.3.95v.2q.05.2.05.8 0 1.1-.825 1.75-.825.65-1.975.65Zm33.5-.05q-1.55 0-2.675-1.15Q36.6 25 36.6 23.45q0-.45.175-.95.175-.5.475-1.1l-1.4-1.15q-.4-.4-.075-.975t.775-.575h3.8q1.6 0 2.725 1.125T44.2 22.5v1q0 1.55-1.15 2.675Q41.9 27.3 40.4 27.3ZM-.5 36.5v-3.15q0-2.2 2.2-3.525Q3.9 28.5 7.5 28.5h.7q.35 0 .65.05-.45.9-.725 1.975Q7.85 31.6 7.85 32.75v3.75Zm12 0v-3.75q0-3.55 3.45-5.65Q18.4 25 24 25q5.7 0 9.1 2.1 3.4 2.1 3.4 5.65v3.75Zm29-8q3.65 0 5.825 1.3 2.175 1.3 2.175 3.55v3.15h-8.35v-3.75q0-1.15-.25-2.2-.25-1.05-.65-2 .3-.05.625-.05h.625Z"/></svg>